<?xml version="1.0" encoding="UTF-8" standalone="no"?>
<!-- Generator: Adobe Illustrator 17.1.0, SVG Export Plug-In . SVG Version: 6.00 Build 0)  -->

<svg
   xmlns:dc="http://purl.org/dc/elements/1.1/"
   xmlns:cc="http://creativecommons.org/ns#"
   xmlns:rdf="http://www.w3.org/1999/02/22-rdf-syntax-ns#"
   xmlns:svg="http://www.w3.org/2000/svg"
   xmlns="http://www.w3.org/2000/svg"
   xmlns:sodipodi="http://sodipodi.sourceforge.net/DTD/sodipodi-0.dtd"
   xmlns:inkscape="http://www.inkscape.org/namespaces/inkscape"
   version="1.1"
   id="Capa_1"
   x="0px"
   y="0px"
   viewBox="0 0 402.686 402.686"
   style="enable-background:new 0 0 402.686 402.686;"
   xml:space="preserve"
   inkscape:version="0.48.4 r9939"
   width="100%"
   height="100%"
   sodipodi:docname="walls1.svg"><metadata
     id="metadata3199"><rdf:RDF><cc:Work
         rdf:about=""><dc:format>image/svg+xml</dc:format><dc:type
           rdf:resource="http://purl.org/dc/dcmitype/StillImage" /></cc:Work></rdf:RDF></metadata><defs
     id="defs3197" /><sodipodi:namedview
     pagecolor="#ffffff"
     bordercolor="#666666"
     borderopacity="1"
     objecttolerance="10"
     gridtolerance="10"
     guidetolerance="10"
     inkscape:pageopacity="0"
     inkscape:pageshadow="2"
     inkscape:window-width="1366"
     inkscape:window-height="709"
     id="namedview3195"
     showgrid="false"
     inkscape:zoom="0.58606458"
     inkscape:cx="306.62788"
     inkscape:cy="201.343"
     inkscape:window-x="-2"
     inkscape:window-y="-3"
     inkscape:window-maximized="1"
     inkscape:current-layer="Capa_1"
     inkscape:snap-bbox="true"
     showguides="true"
     inkscape:guide-bbox="true" /><g
     id="g3135"
     transform="matrix(1,0,0,0.99403126,1.412597,53.789374)"><path
       d="m 15,193.754 h 96.605 c 8.271,0 15,-6.729 15,-15 V 148.67 c 0,-8.271 -6.729,-15 -15,-15 H 15 c -8.271,0 -15,6.729 -15,15 v 30.084 c 0,8.271 6.729,15 15,15 z"
       id="path3137"
       inkscape:connector-curvature="0" /><path
       d="M 264.287,178.754 V 148.67 c 0,-8.271 -6.729,-15 -15,-15 h -96.605 c -8.271,0 -15,6.729 -15,15 v 30.084 c 0,8.271 6.729,15 15,15 h 96.605 c 8.271,0 15,-6.729 15,-15 z"
       id="path3139"
       inkscape:connector-curvature="0" /><path
       d="M 401.968,178.754 V 148.67 c 0,-8.271 -6.729,-15 -15,-15 h -96.605 c -8.271,0 -15,6.729 -15,15 v 30.084 c 0,8.271 6.729,15 15,15 h 96.605 c 8.271,0 15,-6.729 15,-15 z"
       id="path3141"
       inkscape:connector-curvature="0" /><path
       d="m 82.976,118.492 h 96.606 c 8.271,0 15,-6.729 15,-15 V 73.407 c 0,-8.271 -6.729,-15 -15,-15 H 82.976 c -8.271,0 -15,6.729 -15,15 v 30.085 c 0,8.271 6.729,15 15,15 z"
       id="path3143"
       inkscape:connector-curvature="0" /><path
       d="m 222.104,118.492 h 96.605 c 8.271,0 15,-6.729 15,-15 V 73.407 c 0,-8.271 -6.729,-15 -15,-15 h -96.605 c -8.271,0 -15,6.729 -15,15 v 30.085 c 0,8.271 6.729,15 15,15 z"
       id="path3145"
       inkscape:connector-curvature="0" /><path
       d="m 15,118.492 h 26.302 c 8.271,0 15,-6.729 15,-15 V 73.407 c 0,-8.271 -6.729,-15 -15,-15 H 15 c -8.271,0 -15,6.729 -15,15 v 30.085 c 0,8.271 6.729,15 15,15 z"
       id="path3147"
       inkscape:connector-curvature="0" /><path
       d="m 387.686,58.407 h -26.301 c -8.271,0 -15,6.729 -15,15.001 v 30.084 c 0,8.271 6.729,15 15,15 h 26.301 c 8.271,0 15,-6.729 15,-15 V 73.408 c 0,-8.272 -6.729,-15.001 -15,-15.001 z"
       id="path3149"
       inkscape:connector-curvature="0" /><path
       d="M 111.605,284.194 H 15 c -8.271,0 -15,6.729 -15,15 v 30.085 c 0,8.271 6.729,15 15,15 h 96.605 c 8.271,0 15,-6.729 15,-15 v -30.085 c 0,-8.271 -6.728,-15 -15,-15 z"
       id="path3151"
       inkscape:connector-curvature="0" /><path
       d="m 249.287,284.194 h -96.605 c -8.271,0 -15,6.729 -15,15 v 30.085 c 0,8.271 6.729,15 15,15 h 96.605 c 8.271,0 15,-6.729 15,-15 v -30.085 c 0,-8.271 -6.729,-15 -15,-15 z"
       id="path3153"
       inkscape:connector-curvature="0" /><path
       d="m 386.968,284.194 h -96.605 c -8.271,0 -15,6.729 -15,15 v 30.085 c 0,8.271 6.729,15 15,15 h 96.605 c 8.271,0 15,-6.729 15,-15 v -30.085 c 0,-8.271 -6.729,-15 -15,-15 z"
       id="path3155"
       inkscape:connector-curvature="0" /><path
       d="m 82.976,208.932 c -8.271,0 -15,6.729 -15,15 v 30.085 c 0,8.271 6.729,15 15,15 h 96.606 c 8.271,0 15,-6.729 15,-15 v -30.085 c 0,-8.271 -6.729,-15 -15,-15 H 82.976 z"
       id="path3157"
       inkscape:connector-curvature="0" /><path
       d="m 222.104,269.016 h 96.605 c 8.271,0 15,-6.729 15,-15 v -30.085 c 0,-8.271 -6.729,-15 -15,-15 h -96.605 c -8.271,0 -15,6.729 -15,15 v 30.085 c 0,8.271 6.729,15 15,15 z"
       id="path3159"
       inkscape:connector-curvature="0" /><path
       d="m 15,269.016 h 26.302 c 8.271,0 15,-6.729 15,-15 v -30.085 c 0,-8.271 -6.729,-15 -15,-15 H 15 c -8.271,0 -15,6.729 -15,15 v 30.085 c 0,8.271 6.729,15 15,15 z"
       id="path3161"
       inkscape:connector-curvature="0" /><path
       d="m 387.686,208.932 h -26.301 c -8.271,0 -15,6.729 -15,15 v 30.085 c 0,8.271 6.729,15 15,15 h 26.301 c 8.271,0 15,-6.729 15,-15 v -30.085 c 0,-8.271 -6.729,-15 -15,-15 z"
       id="path3163"
       inkscape:connector-curvature="0" /></g><g
     id="g3165" /><g
     id="g3167" /><g
     id="g3169" /><g
     id="g3171" /><g
     id="g3173" /><g
     id="g3175" /><g
     id="g3177" /><g
     id="g3179" /><g
     id="g3181" /><g
     id="g3183" /><g
     id="g3185" /><g
     id="g3187" /><g
     id="g3189" /><g
     id="g3191" /><g
     id="g3193" /><text
     xml:space="preserve"
     style="font-size:154.33145142px;font-style:normal;font-variant:normal;font-weight:normal;font-stretch:normal;line-height:0%;letter-spacing:0px;word-spacing:0px;fill:#000000;fill-opacity:1;stroke:none;font-family:Cube;-inkscape-font-specification:Cube"
     x="6.6519585"
     y="98.595444"
     id="text3205"
     sodipodi:linespacing="0%"
     transform="scale(0.94235049,1.0611763)"><tspan
       sodipodi:role="line"
       id="tspan3207"
       x="6.6519585"
       y="98.595444"
       style="font-size:40.80419159px;line-height:0%">BRICK</tspan></text>
</svg>